PathFileType	4	(X/Y/Z)	Patient4_TMGait_0pt6_01_left_35.trc.trc
DataRate	CameraRate	NumFrames	NumMarkers	Units	OrigDataRate	OrigDataStartFrame	OrigNumFrames
78.212290502793	78.212290502793	4	33	mm	78.212290502793	106	       141
Frame#	Time	Sacral			L.Shoulder			Chest			R.Shoulder			Neck			R.ASIS			L.ASIS			R.Thigh.Superior			R.Thigh.Lateral			R.Thigh.Inferior			R.Patella			L.Thigh.Superior			L.Thigh.Lateral			L.Thigh.Inferior			L.Patella			L.Shank.Superior			L.Shank.Lateral			L.Shank.Inferior			R.Shank.Superior			R.Shank.Lateral			R.Shank.Inferior			R.Heel			R.Midfoot.Superior			R.Midfoot.Lateral			R.Toe			L.Heel			L.Midfoot.Lateral			L.Midfoot.Superior			L.Toe			L.Elbow			L.Wrist			R.Elbow			R.Wrist			
		X1	Y1	Z1	X2	Y2	Z2	X3	Y3	Z3	X4	Y4	Z4	X5	Y5	Z5	X6	Y6	Z6	X7	Y7	Z7	X8	Y8	Z8	X9	Y9	Z9	X10	Y10	Z10	X11	Y11	Z11	X12	Y12	Z12	X13	Y13	Z13	X14	Y14	Z14	X15	Y15	Z15	X16	Y16	Z16	X17	Y17	Z17	X18	Y18	Z18	X19	Y19	Z19	X20	Y20	Z20	X21	Y21	Z21	X22	Y22	Z22	X23	Y23	Z23	X24	Y24	Z24	X25	Y25	Z25	X26	Y26	Z26	X27	Y27	Z27	X28	Y28	Z28	X29	Y29	Z29	X30	Y30	Z30	X31	Y31	Z31	X32	Y32	Z32	X33	Y33	Z33	

106	43.872500000000	777.929370289243	1010.158466423969	515.347908131960	925.059023364797	1432.442334351202	307.746559338956	1050.746772160032	1370.288591259824	454.108410771255	991.552126484994	1445.789726564856	636.230705109809	926.339059831987	1496.343685364959	460.790949946849	1014.607673136121	943.115569722248	605.846051241994	971.099621574928	966.445258629237	335.802141103276	1041.392849077981	737.582231340016	568.393169233210	957.798303906406	632.892255868366	633.727153372266	1021.325255644264	577.809821826343	546.162527345885	1014.457882518920	488.971016448515	549.992643919539	1064.606207354168	791.390111316002	366.644167567754	1026.050101073276	663.068163616779	290.434288500409	1132.394305978431	607.964749258094	352.157851494030	1158.311981944009	531.566200542926	344.862329276729	1123.339407140265	455.793209059473	334.795638792097	1022.410606096133	350.419196460806	287.700250166036	1080.598720639893	231.478723404176	338.533064997104	983.675297771643	401.286551992750	556.783338956500	911.440656681697	299.102926172239	618.849929740612	945.327084139960	204.466257931528	551.298124514990	803.392656052924	42.683335379956	522.319542261213	974.909355795923	95.997530956492	554.577994467523	887.294318778126	36.800310730377	596.159651561391	1095.630587838672	42.128842053040	582.888464852152	954.999019028134	75.810053542279	380.507226134677	1022.114411672427	71.541691377295	295.425447238857	1108.672503617305	131.081026321928	313.951089428342	1229.945965189076	77.487527387472	275.673378361381	884.607403132210	1070.056737042558	213.886250454274	904.383980100598	812.335164860525	221.133568385591	1058.224535415898	1109.110528463321	766.765105868506	1297.840325444402	1044.090001950469	705.298255994613	
107	43.885285714286	776.788333287688	1010.181453531984	516.095152198277	923.699650033588	1432.282898988192	307.969268221714	1049.955591208795	1369.837567591937	453.682249715047	991.845577662545	1445.644903823998	636.043749273065	925.822012110348	1496.173132674612	460.855295472670	1013.495119806370	942.600178941035	605.390138949944	969.240869923354	966.460147496988	335.387950797060	1038.721404384290	736.735130411744	567.955952646049	954.473571738964	632.592731697307	633.640630413594	1017.248305757475	577.029743674095	546.053690630985	1009.605495184941	488.240605680235	549.904076083709	1061.842659005446	790.691399987330	366.386902396115	1022.736975225120	662.627482953384	289.878625490710	1128.146486570259	607.099944269791	352.844982148447	1155.348457801948	533.620590425302	345.775132707071	1125.257890819639	458.198481517841	335.108574713113	1033.501541127912	345.608919076962	286.181071553526	1099.836422752455	231.097572288418	337.987743062813	978.270765705208	400.692898551197	556.696066799018	905.413864489082	298.955135286555	618.762231444170	938.566091464834	204.090612849006	551.201602310524	795.717575513853	42.750513556761	522.323354206617	967.293296374307	95.964653532912	554.603865950961	879.616547477086	36.812687892410	596.158865250007	1087.958470361546	41.917872080664	582.999989485690	985.916883668309	65.965117252531	378.066135430284	1054.829146368698	66.702882349720	294.112481365001	1136.334076477991	132.682968063920	313.795529212893	1262.084617567309	88.327412961081	277.815559271698	876.229645250820	1070.921870476775	214.429528927573	887.686137395328	812.930531168216	223.053224201108	1067.483117705660	1111.296250682550	765.508018448129	1309.926434799221	1066.993634010200	699.752580584936	
108	43.898071428571	775.695325185065	1010.195184239369	516.621410756506	922.450943465517	1432.219574209985	308.110390337198	1049.205031878028	1369.401707229991	453.198654386837	992.078971123443	1445.428811760807	635.791050400451	925.318341236401	1496.019840179479	460.862348899357	1012.416637903296	942.103552840183	604.768884534600	967.489573000793	966.423649303890	334.828367834707	1036.100536175923	735.881956671686	567.539081985405	951.071422383042	632.290371258041	633.470666044101	1013.125234055574	576.229509694855	545.903446646066	1004.693768082678	487.540130903569	549.760134226697	1058.861120084673	789.615023852918	365.998186954044	1019.168852300880	661.978071775886	289.059709301419	1123.596046255348	605.897158678225	353.363475563960	1151.970903482132	535.351736350547	346.608873653158	1126.545826969826	460.569756231076	335.408294818379	1044.015257186806	341.620004479897	284.762073550335	1117.732971139922	231.946827528314	337.752641577272	972.832605672987	400.139022407771	556.561960547121	899.349627064621	298.853883726107	618.650859321252	931.784580751138	203.757480251749	551.102737930169	788.043038853529	42.851380192585	522.340285402448	959.672362588149	95.913625731382	554.604969508679	871.937406896099	36.831460331869	596.152539399904	1080.290784346841	41.698208676854	583.113557325251	1015.351715927652	58.766179973126	376.079189117668	1085.917723480166	63.962780067491	293.394746393410	1162.242295687021	135.712509523521	314.159192835783	1291.704526019289	100.112701915549	280.878041825702	867.811568377019	1072.096151482610	214.898828695417	872.028508385332	814.086797614453	225.047321154991	1076.700195714951	1113.575546896291	763.775893804427	1320.215786331347	1089.619973753752	694.063587151497	
109	43.910857142857	774.650772869588	1010.220895206752	516.925327767423	921.292502294920	1432.258220779731	308.160246241108	1048.485654428193	1369.004611269670	452.650545143031	992.248820114737	1445.176862513819	635.459262502200	924.810844694194	1495.902896790731	460.799589680206	1011.383147652840	941.642771419558	603.989555786278	965.829578051997	966.370037843695	334.131309934330	1033.504363969719	735.032865718668	567.105799001640	947.591589454236	631.995564300759	633.207462894357	1008.941561741709	575.422330457246	545.685357412349	999.711362657440	486.879825072540	549.543102603215	1055.754796532754	788.336933878146	365.502347459005	1015.559128460829	661.243691097485	288.040016644133	1119.035828656123	604.575343814594	353.672761015019	1148.448679210471	536.848477397185	347.295813032686	1127.343716044686	462.905100816381	335.631034798457	1053.678694716739	338.518702720669	283.573974812588	1133.952490466329	233.850009116476	337.793562299373	967.345194018688	399.633833069676	556.369322894731	893.243108394969	298.811401257451	618.511717454459	924.979885389660	203.478812431534	550.999284317493	780.369224351862	42.992539275931	522.369765857107	952.054165094910	95.860383337643	554.602371009503	864.257460491236	36.861045804163	596.142060273288	1072.626478073737	41.476327756963	583.226650639398	1042.577383245097	54.089629934863	374.748481462183	1114.561820431877	63.078331438057	293.323872734891	1185.849454907415	139.845379914010	314.931060668034	1318.252371025571	112.238391926505	284.457420400576	859.440839721907	1073.558349541810	215.322385076581	857.406552721358	815.687409574005	227.064901251346	1085.814282419402	1115.979429752297	761.587994587789	1328.787626497388	1111.690748819297	688.305025796992	
